<svg width="37" height="38" viewBox="0 0 37 38" fill="none" xmlns="http://www.w3.org/2000/svg">
<path d="M18.5 15.8333V25.3333M18.5 25.3333L13.875 20.5833M18.5 25.3333L23.125 20.5833M26.2083 33.25H10.7917C9.97391 33.25 9.18966 32.9164 8.61142 32.3225C8.03318 31.7286 7.70833 30.9232 7.70833 30.0833V7.91667C7.70833 7.07681 8.03318 6.27136 8.61142 5.6775C9.18966 5.08363 9.97391 4.75 10.7917 4.75H19.4034C19.8123 4.75009 20.2043 4.91696 20.4934 5.21392L28.84 13.7861C29.1291 14.0829 29.2916 14.4856 29.2917 14.9055V30.0833C29.2917 30.9232 28.9668 31.7286 28.3886 32.3225C27.8103 32.9164 27.0261 33.25 26.2083 33.25Z" stroke="white" stroke-width="2" stroke-linecap="round" stroke-linejoin="round"/>
</svg>
