<svg width="37" height="37" viewBox="0 0 37 37" fill="none" xmlns="http://www.w3.org/2000/svg">
<path d="M13.875 7.70831H9.70833C8.60376 7.70831 7.70833 8.60374 7.70833 9.70831V30.375C7.70833 31.4795 8.60376 32.375 9.70833 32.375H27.2917C28.3962 32.375 29.2917 31.4795 29.2917 30.375V9.70831C29.2917 8.60374 28.3962 7.70831 27.2917 7.70831H23.125" stroke="white" stroke-width="2" stroke-linecap="round" stroke-linejoin="round"/>
<path d="M18.5 18.5H23.125" stroke="white" stroke-width="2" stroke-linecap="round" stroke-linejoin="round"/>
<path d="M18.5 24.6667H23.125" stroke="white" stroke-width="2" stroke-linecap="round" stroke-linejoin="round"/>
<path d="M13.875 6.625C13.875 5.52043 14.7704 4.625 15.875 4.625H21.125C22.2296 4.625 23.125 5.52043 23.125 6.625V10.7917H13.875V6.625Z" stroke="white" stroke-width="2" stroke-linecap="round" stroke-linejoin="round"/>
<ellipse cx="13.875" cy="18.5" rx="1.54167" ry="1.54167" fill="white"/>
<ellipse cx="13.875" cy="24.6667" rx="1.54167" ry="1.54167" fill="white"/>
</svg>
