<svg width="37" height="37" viewBox="0 0 37 37" fill="none" xmlns="http://www.w3.org/2000/svg">
<path d="M18.5 6.16668H8.16667C7.0621 6.16668 6.16667 7.06211 6.16667 8.16668V28.8333C6.16667 29.9379 7.0621 30.8333 8.16667 30.8333H28.8333C29.9379 30.8333 30.8333 29.9379 30.8333 28.8333V18.5M28.3886 12.9719L30.0625 11.298C31.2666 10.0939 31.2665 8.14167 30.0624 6.93756C28.8583 5.73343 26.906 5.73344 25.7019 6.93757L24.0281 8.61142M28.3886 12.9719L19.0827 22.278C18.6522 22.7084 18.104 23.0018 17.5071 23.1212L12.9719 24.0282L13.879 19.493C13.9984 18.8961 14.2917 18.3479 14.7222 17.9175L24.0281 8.61142M28.3886 12.9719L24.0281 8.61142" stroke="white" stroke-width="2" stroke-linecap="round" stroke-linejoin="round"/>
</svg>
